<mxfile host="app.diagrams.net" modified="2022-04-04T17:23:24.970Z" agent="5.0 (Windows)" etag="80zZkC-cXAym3ynRNQnh" version="16.5.3" type="github">
  <diagram id="x-oC2y3awoPrD1anHeTV" name="Page-1">
    <mxGraphModel dx="1422" dy="762" grid="1" gridSize="10" guides="1" tooltips="1" connect="1" arrows="1" fold="1" page="1" pageScale="1" pageWidth="827" pageHeight="1169" math="0" shadow="0">
      <root>
        <mxCell id="0" />
        <mxCell id="1" parent="0" />
        <mxCell id="XpQ3n7xfCRA-5N4V88SG-3" value="" style="edgeStyle=orthogonalEdgeStyle;rounded=0;orthogonalLoop=1;jettySize=auto;html=1;" parent="1" source="XpQ3n7xfCRA-5N4V88SG-1" edge="1">
          <mxGeometry relative="1" as="geometry">
            <mxPoint x="100" y="180" as="targetPoint" />
          </mxGeometry>
        </mxCell>
        <mxCell id="XpQ3n7xfCRA-5N4V88SG-1" value="HAL" style="shape=process;whiteSpace=wrap;html=1;backgroundOutline=1;" parent="1" vertex="1">
          <mxGeometry x="40" y="40" width="120" height="60" as="geometry" />
        </mxCell>
        <mxCell id="XpQ3n7xfCRA-5N4V88SG-6" value="" style="edgeStyle=orthogonalEdgeStyle;rounded=0;orthogonalLoop=1;jettySize=auto;html=1;" parent="1" source="XpQ3n7xfCRA-5N4V88SG-4" target="XpQ3n7xfCRA-5N4V88SG-5" edge="1">
          <mxGeometry relative="1" as="geometry" />
        </mxCell>
        <mxCell id="XpQ3n7xfCRA-5N4V88SG-11" value="Created new Threads" style="edgeStyle=orthogonalEdgeStyle;rounded=0;orthogonalLoop=1;jettySize=auto;html=1;" parent="1" source="XpQ3n7xfCRA-5N4V88SG-4" target="XpQ3n7xfCRA-5N4V88SG-5" edge="1">
          <mxGeometry relative="1" as="geometry" />
        </mxCell>
        <mxCell id="XpQ3n7xfCRA-5N4V88SG-4" value="System" style="shape=process;whiteSpace=wrap;html=1;backgroundOutline=1;" parent="1" vertex="1">
          <mxGeometry x="40" y="180" width="120" height="60" as="geometry" />
        </mxCell>
        <mxCell id="XpQ3n7xfCRA-5N4V88SG-10" value="" style="edgeStyle=orthogonalEdgeStyle;rounded=0;orthogonalLoop=1;jettySize=auto;html=1;" parent="1" source="XpQ3n7xfCRA-5N4V88SG-5" target="XpQ3n7xfCRA-5N4V88SG-9" edge="1">
          <mxGeometry relative="1" as="geometry" />
        </mxCell>
        <mxCell id="XpQ3n7xfCRA-5N4V88SG-29" value="" style="edgeStyle=orthogonalEdgeStyle;rounded=0;orthogonalLoop=1;jettySize=auto;html=1;" parent="1" source="XpQ3n7xfCRA-5N4V88SG-5" target="XpQ3n7xfCRA-5N4V88SG-28" edge="1">
          <mxGeometry relative="1" as="geometry" />
        </mxCell>
        <mxCell id="XpQ3n7xfCRA-5N4V88SG-5" value="LOG" style="shape=process;whiteSpace=wrap;html=1;backgroundOutline=1;" parent="1" vertex="1">
          <mxGeometry x="320" y="180" width="120" height="60" as="geometry" />
        </mxCell>
        <mxCell id="XpQ3n7xfCRA-5N4V88SG-13" value="" style="edgeStyle=orthogonalEdgeStyle;rounded=0;orthogonalLoop=1;jettySize=auto;html=1;" parent="1" source="XpQ3n7xfCRA-5N4V88SG-9" target="XpQ3n7xfCRA-5N4V88SG-12" edge="1">
          <mxGeometry relative="1" as="geometry" />
        </mxCell>
        <mxCell id="XpQ3n7xfCRA-5N4V88SG-31" value="" style="edgeStyle=orthogonalEdgeStyle;rounded=0;orthogonalLoop=1;jettySize=auto;html=1;" parent="1" source="XpQ3n7xfCRA-5N4V88SG-9" target="XpQ3n7xfCRA-5N4V88SG-30" edge="1">
          <mxGeometry relative="1" as="geometry" />
        </mxCell>
        <mxCell id="XpQ3n7xfCRA-5N4V88SG-9" value="PERIODIC" style="shape=process;whiteSpace=wrap;html=1;backgroundOutline=1;" parent="1" vertex="1">
          <mxGeometry x="320" y="320" width="120" height="60" as="geometry" />
        </mxCell>
        <mxCell id="XpQ3n7xfCRA-5N4V88SG-15" value="" style="edgeStyle=orthogonalEdgeStyle;rounded=0;orthogonalLoop=1;jettySize=auto;html=1;" parent="1" source="XpQ3n7xfCRA-5N4V88SG-12" target="XpQ3n7xfCRA-5N4V88SG-14" edge="1">
          <mxGeometry relative="1" as="geometry" />
        </mxCell>
        <mxCell id="XpQ3n7xfCRA-5N4V88SG-33" value="" style="edgeStyle=orthogonalEdgeStyle;rounded=0;orthogonalLoop=1;jettySize=auto;html=1;" parent="1" source="XpQ3n7xfCRA-5N4V88SG-12" edge="1">
          <mxGeometry relative="1" as="geometry">
            <mxPoint x="520" y="490" as="targetPoint" />
          </mxGeometry>
        </mxCell>
        <mxCell id="XpQ3n7xfCRA-5N4V88SG-12" value="HEARTBEAT" style="shape=process;whiteSpace=wrap;html=1;backgroundOutline=1;" parent="1" vertex="1">
          <mxGeometry x="320" y="460" width="120" height="60" as="geometry" />
        </mxCell>
        <mxCell id="XpQ3n7xfCRA-5N4V88SG-17" value="" style="edgeStyle=orthogonalEdgeStyle;rounded=0;orthogonalLoop=1;jettySize=auto;html=1;" parent="1" source="XpQ3n7xfCRA-5N4V88SG-14" target="XpQ3n7xfCRA-5N4V88SG-16" edge="1">
          <mxGeometry relative="1" as="geometry" />
        </mxCell>
        <mxCell id="XpQ3n7xfCRA-5N4V88SG-41" style="edgeStyle=orthogonalEdgeStyle;rounded=0;orthogonalLoop=1;jettySize=auto;html=1;exitX=1;exitY=0.5;exitDx=0;exitDy=0;entryX=0;entryY=0.5;entryDx=0;entryDy=0;" parent="1" source="XpQ3n7xfCRA-5N4V88SG-14" target="XpQ3n7xfCRA-5N4V88SG-35" edge="1">
          <mxGeometry relative="1" as="geometry" />
        </mxCell>
        <mxCell id="XpQ3n7xfCRA-5N4V88SG-14" value="SEVCON" style="shape=process;whiteSpace=wrap;html=1;backgroundOutline=1;" parent="1" vertex="1">
          <mxGeometry x="320" y="600" width="120" height="60" as="geometry" />
        </mxCell>
        <mxCell id="XpQ3n7xfCRA-5N4V88SG-19" value="" style="edgeStyle=orthogonalEdgeStyle;rounded=0;orthogonalLoop=1;jettySize=auto;html=1;" parent="1" source="XpQ3n7xfCRA-5N4V88SG-16" target="XpQ3n7xfCRA-5N4V88SG-18" edge="1">
          <mxGeometry relative="1" as="geometry" />
        </mxCell>
        <mxCell id="XpQ3n7xfCRA-5N4V88SG-48" style="edgeStyle=orthogonalEdgeStyle;rounded=0;orthogonalLoop=1;jettySize=auto;html=1;exitX=1;exitY=0.5;exitDx=0;exitDy=0;entryX=0;entryY=0.5;entryDx=0;entryDy=0;" parent="1" source="XpQ3n7xfCRA-5N4V88SG-16" target="XpQ3n7xfCRA-5N4V88SG-36" edge="1">
          <mxGeometry relative="1" as="geometry" />
        </mxCell>
        <mxCell id="XpQ3n7xfCRA-5N4V88SG-16" value="DRIVER CAN" style="shape=process;whiteSpace=wrap;html=1;backgroundOutline=1;" parent="1" vertex="1">
          <mxGeometry x="320" y="740" width="120" height="60" as="geometry" />
        </mxCell>
        <mxCell id="XpQ3n7xfCRA-5N4V88SG-21" value="" style="edgeStyle=orthogonalEdgeStyle;rounded=0;orthogonalLoop=1;jettySize=auto;html=1;" parent="1" source="XpQ3n7xfCRA-5N4V88SG-18" target="XpQ3n7xfCRA-5N4V88SG-20" edge="1">
          <mxGeometry relative="1" as="geometry" />
        </mxCell>
        <mxCell id="XpQ3n7xfCRA-5N4V88SG-49" style="edgeStyle=orthogonalEdgeStyle;rounded=0;orthogonalLoop=1;jettySize=auto;html=1;exitX=1;exitY=0.5;exitDx=0;exitDy=0;entryX=0;entryY=0.5;entryDx=0;entryDy=0;" parent="1" source="XpQ3n7xfCRA-5N4V88SG-18" target="XpQ3n7xfCRA-5N4V88SG-37" edge="1">
          <mxGeometry relative="1" as="geometry" />
        </mxCell>
        <mxCell id="XpQ3n7xfCRA-5N4V88SG-18" value="DRIVER UART" style="shape=process;whiteSpace=wrap;html=1;backgroundOutline=1;" parent="1" vertex="1">
          <mxGeometry x="320" y="880" width="120" height="60" as="geometry" />
        </mxCell>
        <mxCell id="XpQ3n7xfCRA-5N4V88SG-23" value="" style="edgeStyle=orthogonalEdgeStyle;rounded=0;orthogonalLoop=1;jettySize=auto;html=1;" parent="1" source="XpQ3n7xfCRA-5N4V88SG-20" target="XpQ3n7xfCRA-5N4V88SG-22" edge="1">
          <mxGeometry relative="1" as="geometry" />
        </mxCell>
        <mxCell id="XpQ3n7xfCRA-5N4V88SG-50" style="edgeStyle=orthogonalEdgeStyle;rounded=0;orthogonalLoop=1;jettySize=auto;html=1;exitX=1;exitY=0.5;exitDx=0;exitDy=0;entryX=0;entryY=0.5;entryDx=0;entryDy=0;" parent="1" source="XpQ3n7xfCRA-5N4V88SG-20" target="XpQ3n7xfCRA-5N4V88SG-38" edge="1">
          <mxGeometry relative="1" as="geometry" />
        </mxCell>
        <mxCell id="XpQ3n7xfCRA-5N4V88SG-20" value="DRIVER ADC" style="shape=process;whiteSpace=wrap;html=1;backgroundOutline=1;" parent="1" vertex="1">
          <mxGeometry x="320" y="1020" width="120" height="60" as="geometry" />
        </mxCell>
        <mxCell id="XpQ3n7xfCRA-5N4V88SG-25" value="" style="edgeStyle=orthogonalEdgeStyle;rounded=0;orthogonalLoop=1;jettySize=auto;html=1;" parent="1" source="XpQ3n7xfCRA-5N4V88SG-22" target="XpQ3n7xfCRA-5N4V88SG-24" edge="1">
          <mxGeometry relative="1" as="geometry" />
        </mxCell>
        <mxCell id="XpQ3n7xfCRA-5N4V88SG-51" style="edgeStyle=orthogonalEdgeStyle;rounded=0;orthogonalLoop=1;jettySize=auto;html=1;exitX=1;exitY=0.5;exitDx=0;exitDy=0;entryX=0;entryY=0.5;entryDx=0;entryDy=0;" parent="1" source="XpQ3n7xfCRA-5N4V88SG-22" target="XpQ3n7xfCRA-5N4V88SG-39" edge="1">
          <mxGeometry relative="1" as="geometry" />
        </mxCell>
        <mxCell id="XpQ3n7xfCRA-5N4V88SG-22" value="FLIGHT CONTROLLER" style="shape=process;whiteSpace=wrap;html=1;backgroundOutline=1;" parent="1" vertex="1">
          <mxGeometry x="320" y="1160" width="120" height="60" as="geometry" />
        </mxCell>
        <mxCell id="XpQ3n7xfCRA-5N4V88SG-27" value="" style="edgeStyle=orthogonalEdgeStyle;rounded=0;orthogonalLoop=1;jettySize=auto;html=1;" parent="1" source="XpQ3n7xfCRA-5N4V88SG-24" target="XpQ3n7xfCRA-5N4V88SG-26" edge="1">
          <mxGeometry relative="1" as="geometry" />
        </mxCell>
        <mxCell id="XpQ3n7xfCRA-5N4V88SG-52" style="edgeStyle=orthogonalEdgeStyle;rounded=0;orthogonalLoop=1;jettySize=auto;html=1;exitX=1;exitY=0.5;exitDx=0;exitDy=0;entryX=0;entryY=0.5;entryDx=0;entryDy=0;" parent="1" source="XpQ3n7xfCRA-5N4V88SG-24" target="XpQ3n7xfCRA-5N4V88SG-40" edge="1">
          <mxGeometry relative="1" as="geometry" />
        </mxCell>
        <mxCell id="XpQ3n7xfCRA-5N4V88SG-24" value="USER" style="shape=process;whiteSpace=wrap;html=1;backgroundOutline=1;" parent="1" vertex="1">
          <mxGeometry x="320" y="1300" width="120" height="60" as="geometry" />
        </mxCell>
        <mxCell id="XpQ3n7xfCRA-5N4V88SG-26" value="RET" style="ellipse;whiteSpace=wrap;html=1;" parent="1" vertex="1">
          <mxGeometry x="320" y="1440" width="120" height="60" as="geometry" />
        </mxCell>
        <mxCell id="XpQ3n7xfCRA-5N4V88SG-28" value="NOT USED" style="whiteSpace=wrap;html=1;" parent="1" vertex="1">
          <mxGeometry x="520" y="180" width="120" height="60" as="geometry" />
        </mxCell>
        <mxCell id="XpQ3n7xfCRA-5N4V88SG-30" value="&lt;div align=&quot;left&quot;&gt;Register peridodic functions every:&lt;/div&gt;&lt;ul&gt;&lt;li&gt;100 ms&lt;/li&gt;&lt;li&gt;200 ms &lt;/li&gt;&lt;li&gt;500 Ms&lt;/li&gt;&lt;li&gt;1 sg&lt;/li&gt;&lt;/ul&gt;" style="whiteSpace=wrap;html=1;align=left;" parent="1" vertex="1">
          <mxGeometry x="520" y="290" width="280" height="120" as="geometry" />
        </mxCell>
        <mxCell id="XpQ3n7xfCRA-5N4V88SG-34" value="&lt;div align=&quot;left&quot;&gt;Led of life.&lt;/div&gt;&lt;div align=&quot;left&quot;&gt;&lt;ul&gt;&lt;li&gt;Toggle every 1 sg.&lt;/li&gt;&lt;/ul&gt;&lt;/div&gt;" style="whiteSpace=wrap;html=1;align=left;" parent="1" vertex="1">
          <mxGeometry x="520" y="430" width="280" height="120" as="geometry" />
        </mxCell>
        <mxCell id="XpQ3n7xfCRA-5N4V88SG-44" value="" style="edgeStyle=orthogonalEdgeStyle;rounded=0;orthogonalLoop=1;jettySize=auto;html=1;" parent="1" source="XpQ3n7xfCRA-5N4V88SG-35" target="XpQ3n7xfCRA-5N4V88SG-43" edge="1">
          <mxGeometry relative="1" as="geometry" />
        </mxCell>
        <mxCell id="XpQ3n7xfCRA-5N4V88SG-35" value="&lt;div align=&quot;left&quot;&gt;Compare velocity GPS vs Drivers Sevcon&lt;br&gt;&lt;/div&gt;&lt;ul&gt;&lt;li&gt;CAN Bus:&lt;/li&gt;&lt;ul&gt;&lt;li&gt;1 Mbit\s&lt;/li&gt;&lt;li&gt;CAnOpen&lt;/li&gt;&lt;/ul&gt;&lt;/ul&gt;" style="whiteSpace=wrap;html=1;align=left;" parent="1" vertex="1">
          <mxGeometry x="520" y="570" width="280" height="120" as="geometry" />
        </mxCell>
        <mxCell id="XpQ3n7xfCRA-5N4V88SG-36" value="Controller driver HAL" style="whiteSpace=wrap;html=1;" parent="1" vertex="1">
          <mxGeometry x="520" y="710" width="280" height="120" as="geometry" />
        </mxCell>
        <mxCell id="XpQ3n7xfCRA-5N4V88SG-37" value="&#xa;Controller driver HAL&#xa;&#xa;" style="whiteSpace=wrap;html=1;" parent="1" vertex="1">
          <mxGeometry x="520" y="850" width="280" height="120" as="geometry" />
        </mxCell>
        <mxCell id="XpQ3n7xfCRA-5N4V88SG-38" value="&#xa;Controller driver HAL&#xa;&#xa;" style="whiteSpace=wrap;html=1;" parent="1" vertex="1">
          <mxGeometry x="520" y="990" width="280" height="120" as="geometry" />
        </mxCell>
        <mxCell id="XpQ3n7xfCRA-5N4V88SG-39" value="&lt;div align=&quot;left&quot;&gt;Controller DAC of ref from Sevcon&lt;/div&gt;&lt;div align=&quot;left&quot;&gt;&lt;ul&gt;&lt;li&gt;PWM to 10 KHz&lt;/li&gt;&lt;/ul&gt;&lt;/div&gt;" style="whiteSpace=wrap;html=1;align=left;" parent="1" vertex="1">
          <mxGeometry x="520" y="1130" width="280" height="120" as="geometry" />
        </mxCell>
        <mxCell id="XpQ3n7xfCRA-5N4V88SG-40" value="&lt;div align=&quot;left&quot;&gt;Edit&amp;nbsp; some variables&lt;/div&gt;&lt;div align=&quot;left&quot;&gt;&lt;ul&gt;&lt;li&gt;MiicroUSB to 115200 baudrate&lt;/li&gt;&lt;/ul&gt;&lt;/div&gt;" style="whiteSpace=wrap;html=1;align=left;" parent="1" vertex="1">
          <mxGeometry x="520" y="1270" width="280" height="120" as="geometry" />
        </mxCell>
        <mxCell id="XpQ3n7xfCRA-5N4V88SG-43" value="GPS" style="shape=process;whiteSpace=wrap;html=1;backgroundOutline=1;" parent="1" vertex="1">
          <mxGeometry x="880" y="600" width="120" height="60" as="geometry" />
        </mxCell>
        <mxCell id="XpQ3n7xfCRA-5N4V88SG-46" style="edgeStyle=orthogonalEdgeStyle;rounded=0;orthogonalLoop=1;jettySize=auto;html=1;exitX=1;exitY=0.5;exitDx=0;exitDy=0;entryX=0;entryY=0.5;entryDx=0;entryDy=0;" parent="1" target="XpQ3n7xfCRA-5N4V88SG-47" edge="1">
          <mxGeometry relative="1" as="geometry">
            <mxPoint x="1000" y="630" as="sourcePoint" />
          </mxGeometry>
        </mxCell>
        <mxCell id="XpQ3n7xfCRA-5N4V88SG-47" value="&lt;div align=&quot;left&quot;&gt;Read velocity from GPS&lt;/div&gt;&lt;div align=&quot;left&quot;&gt;&lt;ul&gt;&lt;li&gt;UART 1&lt;/li&gt;&lt;/ul&gt;&lt;/div&gt;" style="whiteSpace=wrap;html=1;align=left;" parent="1" vertex="1">
          <mxGeometry x="1080" y="570" width="280" height="120" as="geometry" />
        </mxCell>
      </root>
    </mxGraphModel>
  </diagram>
</mxfile>
